<svg xmlns="http://www.w3.org/2000/svg" viewBox="0 0 512 512" width="24" height="24"><path fill="currentColor" fill-rule="evenodd" d="M 349.714 347.937 l 93.714 109.969 l -16.254 13.969 l -93.969 -109.969 q -48.508 36.825 -109.207 36.825 q -36.826 0 -70.476 -14.349 t -57.905 -38.603 t -38.603 -57.905 t -14.349 -70.476 t 14.349 -70.476 t 38.603 -57.905 t 57.905 -38.603 t 70.476 -14.349 t 70.476 14.349 t 57.905 38.603 t 38.603 57.905 t 14.349 70.476 q 0 37.841 -14.73 71.619 t -40.889 58.921 Z M 224 377.397 q 43.428 0 80.254 -21.461 t 58.286 -58.286 t 21.461 -80.254 t -21.461 -80.254 t -58.286 -58.285 t -80.254 -21.46 t -80.254 21.46 t -58.285 58.285 t -21.46 80.254 t 21.46 80.254 t 58.285 58.286 t 80.254 21.461 Z" /></svg>